<?xml version="1.0" encoding="UTF-8" standalone="no" ?>
<?xml-stylesheet type="text/css" href="../css/_loading.css" ?>
<!DOCTYPE svg PUBLIC "-//W3C//DTD SVG 1.1//EN" "http://www.w3.org/Graphics/SVG/1.1/DTD/svg11.dtd">

<svg xmlns="http://www.w3.org/2000/svg" xmlns:xlink="http://www.w3.org/1999/xlink" version="1.1" viewBox="0 0 500 500" xml:space="preserve">
	<defs>
		<linearGradient id="stroke-gradient" x1="50%" y1="0%" x2="0%" y2="50%">
			<stop offset="0%"   stop-color="#00FFFF"/>
			<stop offset="100%" stop-color="#008888"/>
		</linearGradient>
		
		<filter id="glow">
			<feGaussianBlur stdDeviation="4"/>
			<feComponentTransfer>
				<feFuncA type="linear" slope="1" />
			</feComponentTransfer>
			<feBlend in2="SourceGraphic" />
		</filter>
	</defs>
	
	<g transform="matrix(1 0 0 1 237.49 250.47)" filter="url(#glow)">
		<path class="logo-outline" stroke="url(#stroke-gradient)" vector-effect="non-scaling-stroke" d="M -195.60136 243.1675 L -75.21703 -243.1675 L 1.2156500000000108 -243.1675 L 1.2156500000000108 -243.1675 C 5.181050000000011 -243.1675 8.926980000000011 -241.34718999999998 11.37735000000001 -238.22949 C 13.82772000000001 -235.11178999999998 14.71130000000001 -231.0418 13.77426000000001 -227.1887 L -26.673849999999987 -60.866330000000005 L 104.99235000000002 -60.805020000000006 L 104.99235000000002 -243.16750000000002 L 181.03728 -243.16750000000002 L 181.03728 -243.16750000000002 C 184.90220000000002 -243.16750000000002 188.60862 -241.63126000000003 191.34029 -238.89712000000003 C 194.07196000000002 -236.16297000000003 195.60484000000002 -232.45516000000003 195.60134000000002 -228.59024000000002 L 195.19115000000002 224.43916 L 195.19115000000002 224.43916 C 195.18178000000003 234.78528 186.79196000000002 243.16751 176.44584000000003 243.16751 L 104.89108000000003 243.16751 L 104.92824000000003 39.162769999999995 L 104.93017000000003 28.585769999999997 L -49.84177999999997 29.528559999999995 L 104.59731000000002 243.16751 L 26.266710000000018 243.16751 L 26.266710000000018 243.16751 C 22.76565000000002 243.16751 19.490890000000018 241.43701 17.518300000000018 238.54455 L -69.67200999999997 110.69471999999999 L -101.69313999999997 238.16938 L -101.69313999999997 238.16938 C -102.43118999999997 241.10753 -105.07261999999997 243.16751 -108.10204999999998 243.16751 z" stroke-linecap="round" />
	</g>
</svg>