<?xml version="1.0" encoding="UTF-8" standalone="no"?>
<!-- Created with Inkscape (http://www.inkscape.org/) -->

<svg
   width="1620"
   height="610"
   viewBox="0 0 428.62499 161.39583"
   version="1.1"
   id="svg810"
   xml:space="preserve"
   inkscape:export-filename="logoFull.png"
   inkscape:export-xdpi="52.16835"
   inkscape:export-ydpi="52.16835"
   inkscape:version="1.2.1 (9c6d41e410, 2022-07-14)"
   sodipodi:docname="logo-full.svg"
   xmlns:inkscape="http://www.inkscape.org/namespaces/inkscape"
   xmlns:sodipodi="http://sodipodi.sourceforge.net/DTD/sodipodi-0.dtd"
   xmlns="http://www.w3.org/2000/svg"
   xmlns:svg="http://www.w3.org/2000/svg"><sodipodi:namedview
     id="namedview812"
     pagecolor="#ffffff"
     bordercolor="#000000"
     borderopacity="0.25"
     inkscape:showpageshadow="2"
     inkscape:pageopacity="0.0"
     inkscape:pagecheckerboard="0"
     inkscape:deskcolor="#d1d1d1"
     inkscape:document-units="mm"
     showgrid="false"
     inkscape:zoom="0.73851712"
     inkscape:cx="768.43175"
     inkscape:cy="201.75565"
     inkscape:window-width="1920"
     inkscape:window-height="1009"
     inkscape:window-x="-8"
     inkscape:window-y="-8"
     inkscape:window-maximized="1"
     inkscape:current-layer="layer1" /><defs
     id="defs807" /><g
     inkscape:label="Layer 1"
     inkscape:groupmode="layer"
     id="layer1"
     style="display:inline"><path
       id="path4704"
       style="fill:#002020;fill-opacity:1;stroke:#ffffff;stroke-width:0.26458333;stroke-dasharray:none;stroke-opacity:1"
       d="m 45.678349,4.030245 -31.258041,125.661065 23.824386,0.1788 8.866642,-34.213933 23.197551,34.124533 H 115.53972 V 74.518449 4.030245 H 92.07345 v 47.29117 H 58.128235 L 69.503251,4.030245 Z m 6.538619,70.488204 H 92.07345 v 54.411661 z" /><path
       id="path10991"
       style="fill:#002020;fill-opacity:1;stroke:#ffffff;stroke-width:0.26458333;stroke-dasharray:none;stroke-opacity:1"
       d="M 115.36092 74.563407 L 115.45497 129.76831 L 174.73455 129.76831 L 174.73455 74.563407 L 115.36092 74.563407 z M 129.64635 89.073116 L 160.14371 89.073116 L 160.14371 115.22656 L 129.64635 115.271 L 129.64635 89.073116 z " /><path
       id="path10993"
       style="fill:#002020;fill-opacity:1;stroke:#ffffff;stroke-width:0.26458333;stroke-dasharray:none;stroke-opacity:1"
       d="M 174.7976 27.106356 L 174.73455 129.6417 L 234.14023 129.6417 L 234.14023 74.732389 L 189.04789 74.732389 L 189.04789 27.106356 L 174.7976 27.106356 z M 189.02826 88.983716 L 219.48066 88.983716 L 219.48066 115.31596 L 189.02826 115.22656 L 189.02826 88.983716 z " /><path
       id="path10995"
       style="fill:#002020;fill-opacity:1;stroke:#ffffff;stroke-width:0.26458333;stroke-dasharray:none;stroke-opacity:1"
       d="M 278.91631 27.042794 L 278.91631 74.605782 L 234.07719 74.605782 L 234.14023 129.6417 L 293.54642 129.6417 L 293.54642 27.042794 L 278.91631 27.042794 z M 248.36572 88.983716 L 278.90752 88.983716 L 278.90752 115.1816 L 248.36572 115.22656 L 248.36572 88.983716 z " /><path
       id="path10997"
       style="fill:#002020;fill-opacity:1;stroke:#ffffff;stroke-width:0.26458333;stroke-dasharray:none;stroke-opacity:1"
       d="M 293.54642 74.605782 L 293.54642 129.6417 L 352.50872 129.6417 L 352.50872 115.07515 L 307.7962 115.07515 L 307.7962 106.2085 L 352.63584 106.2085 L 352.63584 74.605782 L 293.54642 74.605782 z M 307.83754 89.028158 L 338.28995 89.028158 L 338.28995 97.760958 L 307.88198 97.760958 L 307.83754 89.028158 z " /><path
       style="fill:#002020;fill-opacity:1;stroke:#ffffff;stroke-width:0.26458333;stroke-dasharray:none;stroke-opacity:1"
       d="m 367.07542,74.669067 v 40.406163 h 30.59647 V 74.608263 H 412.2711 V 158.53136 H 14.330518 V 144.02171 H 397.76145 v -14.42008 h -45.2307 V 74.518696 Z"
       id="path10999" /></g></svg>
